<svg xmlns="http://www.w3.org/2000/svg" width="352.93" height="35" viewBox="0 0 352.93 35"><rect class="svg__rect" x="0" y="0" width="106.24" height="35" fill="#3C9AD5"/><rect class="svg__rect" x="104.24" y="0" width="248.69" height="35" fill="#7D7D7D"/><path class="svg__text" d="M13.95 18.19L13.95 18.19L13.95 17.39Q13.95 16.19 14.38 15.27Q14.80 14.35 15.60 13.85Q16.40 13.35 17.45 13.35L17.45 13.35Q18.86 13.35 19.73 14.12Q20.59 14.89 20.73 16.29L20.73 16.29L19.25 16.29Q19.14 15.37 18.71 14.96Q18.28 14.55 17.45 14.55L17.45 14.55Q16.48 14.55 15.97 15.26Q15.45 15.96 15.44 17.33L15.44 17.33L15.44 18.09Q15.44 19.47 15.93 20.20Q16.43 20.92 17.38 20.92L17.38 20.92Q18.25 20.92 18.69 20.53Q19.13 20.14 19.25 19.22L19.25 19.22L20.73 19.22Q20.60 20.59 19.72 21.35Q18.84 22.12 17.38 22.12L17.38 22.12Q16.36 22.12 15.59 21.63Q14.81 21.15 14.39 20.26Q13.97 19.37 13.95 18.19ZM24.77 18.00L24.77 18.00L24.77 17.52Q24.77 16.28 25.21 15.32Q25.65 14.37 26.46 13.86Q27.27 13.35 28.31 13.35Q29.35 13.35 30.16 13.85Q30.96 14.35 31.40 15.29Q31.84 16.23 31.85 17.48L31.85 17.48L31.85 17.96Q31.85 19.21 31.41 20.16Q30.98 21.10 30.18 21.61Q29.37 22.12 28.32 22.12L28.32 22.12Q27.28 22.12 26.47 21.61Q25.66 21.10 25.22 20.17Q24.78 19.23 24.77 18.00ZM26.25 17.46L26.25 17.96Q26.25 19.36 26.80 20.13Q27.35 20.90 28.32 20.90L28.32 20.90Q29.31 20.90 29.84 20.15Q30.37 19.40 30.37 17.96L30.37 17.96L30.37 17.51Q30.37 16.09 29.83 15.34Q29.29 14.58 28.31 14.58L28.31 14.58Q27.35 14.58 26.81 15.33Q26.26 16.09 26.25 17.46L26.25 17.46ZM37.80 22L36.31 22L36.31 13.47L37.80 13.47L41.61 19.54L41.61 13.47L43.08 13.47L43.08 22L41.60 22L37.80 15.95L37.80 22ZM49.50 14.66L46.87 14.66L46.87 13.47L53.63 13.47L53.63 14.66L50.97 14.66L50.97 22L49.50 22L49.50 14.66ZM58.17 22L56.63 22L59.85 13.47L61.18 13.47L64.41 22L62.86 22L62.16 20.01L58.86 20.01L58.17 22ZM60.51 15.28L59.28 18.82L61.75 18.82L60.51 15.28ZM69.93 22L68.45 22L68.45 13.47L69.93 13.47L69.93 22ZM76.22 22L74.74 22L74.74 13.47L76.22 13.47L80.04 19.54L80.04 13.47L81.51 13.47L81.51 22L80.02 22L76.22 15.95L76.22 22ZM85.81 19.42L85.81 19.42L87.30 19.42Q87.30 20.15 87.78 20.55Q88.26 20.95 89.15 20.95L89.15 20.95Q89.93 20.95 90.32 20.63Q90.71 20.32 90.71 19.80L90.71 19.80Q90.71 19.24 90.31 18.94Q89.91 18.63 88.88 18.32Q87.85 18.01 87.24 17.63L87.24 17.63Q86.08 16.90 86.08 15.72L86.08 15.72Q86.08 14.69 86.92 14.02Q87.76 13.35 89.10 13.35L89.10 13.35Q89.99 13.35 90.69 13.68Q91.39 14.01 91.78 14.61Q92.18 15.22 92.18 15.96L92.18 15.96L90.71 15.96Q90.71 15.29 90.29 14.91Q89.87 14.54 89.09 14.54L89.09 14.54Q88.36 14.54 87.96 14.85Q87.56 15.16 87.56 15.71L87.56 15.71Q87.56 16.18 87.99 16.50Q88.43 16.81 89.42 17.10Q90.42 17.40 91.02 17.78Q91.63 18.16 91.91 18.65Q92.19 19.13 92.19 19.79L92.19 19.79Q92.19 20.86 91.37 21.49Q90.55 22.12 89.15 22.12L89.15 22.12Q88.23 22.12 87.45 21.77Q86.67 21.43 86.24 20.83Q85.81 20.22 85.81 19.42Z" fill="#FFFFFF"/><path class="svg__text" d="M120.22 15.48L117.64 15.48L117.64 13.60L125.16 13.60L125.16 15.48L122.59 15.48L122.59 22L120.22 22L120.22 15.48ZM130.95 22L128.52 22L132.23 13.60L134.58 13.60L138.29 22L135.82 22L135.16 20.37L131.61 20.37L130.95 22ZM133.39 15.93L132.30 18.61L134.47 18.61L133.39 15.93ZM141.86 21.24L141.86 21.24L142.64 19.49Q143.20 19.86 143.95 20.09Q144.69 20.32 145.41 20.32L145.41 20.32Q146.78 20.32 146.78 19.64L146.78 19.64Q146.78 19.28 146.39 19.11Q146.00 18.93 145.13 18.74L145.13 18.74Q144.19 18.53 143.55 18.30Q142.91 18.06 142.46 17.55Q142.01 17.03 142.01 16.16L142.01 16.16Q142.01 15.39 142.42 14.77Q142.84 14.15 143.68 13.79Q144.51 13.43 145.72 13.43L145.72 13.43Q146.55 13.43 147.35 13.62Q148.16 13.80 148.77 14.17L148.77 14.17L148.04 15.93Q146.84 15.28 145.71 15.28L145.71 15.28Q145.00 15.28 144.68 15.49Q144.36 15.70 144.36 16.04L144.36 16.04Q144.36 16.37 144.74 16.54Q145.12 16.71 145.97 16.89L145.97 16.89Q146.93 17.10 147.56 17.33Q148.19 17.56 148.66 18.07Q149.12 18.58 149.12 19.46L149.12 19.46Q149.12 20.21 148.70 20.83Q148.28 21.44 147.44 21.80Q146.60 22.17 145.40 22.17L145.40 22.17Q144.38 22.17 143.42 21.92Q142.46 21.67 141.86 21.24ZM155.49 15.48L152.90 15.48L152.90 13.60L160.43 13.60L160.43 15.48L157.86 15.48L157.86 22L155.49 22L155.49 15.48ZM166.93 18.95L163.72 13.60L166.23 13.60L168.22 16.94L170.21 13.60L172.52 13.60L169.30 18.99L169.30 22L166.93 22L166.93 18.95ZM182.99 21.24L182.99 21.24L183.77 19.49Q184.33 19.86 185.07 20.09Q185.82 20.32 186.54 20.32L186.54 20.32Q187.90 20.32 187.91 19.64L187.91 19.64Q187.91 19.28 187.52 19.11Q187.13 18.93 186.26 18.74L186.26 18.74Q185.31 18.53 184.68 18.30Q184.04 18.06 183.59 17.55Q183.13 17.03 183.13 16.16L183.13 16.16Q183.13 15.39 183.55 14.77Q183.97 14.15 184.81 13.79Q185.64 13.43 186.85 13.43L186.85 13.43Q187.67 13.43 188.48 13.62Q189.29 13.80 189.90 14.17L189.90 14.17L189.17 15.93Q187.97 15.28 186.84 15.28L186.84 15.28Q186.13 15.28 185.80 15.49Q185.48 15.70 185.48 16.04L185.48 16.04Q185.48 16.37 185.87 16.54Q186.25 16.71 187.10 16.89L187.10 16.89Q188.06 17.10 188.69 17.33Q189.32 17.56 189.78 18.07Q190.25 18.58 190.25 19.46L190.25 19.46Q190.25 20.21 189.83 20.83Q189.41 21.44 188.57 21.80Q187.73 22.17 186.53 22.17L186.53 22.17Q185.51 22.17 184.55 21.92Q183.58 21.67 182.99 21.24ZM197.20 22L194.82 22L194.82 13.60L198.67 13.60Q199.80 13.60 200.64 13.98Q201.48 14.35 201.94 15.06Q202.40 15.76 202.40 16.71L202.40 16.71Q202.40 17.66 201.94 18.35Q201.48 19.05 200.64 19.42Q199.80 19.80 198.67 19.80L198.67 19.80L197.20 19.80L197.20 22ZM197.20 15.47L197.20 17.93L198.52 17.93Q199.25 17.93 199.62 17.61Q200.00 17.29 200.00 16.71L200.00 16.71Q200.00 16.12 199.62 15.80Q199.25 15.47 198.52 15.47L198.52 15.47L197.20 15.47ZM208.57 22L206.14 22L209.85 13.60L212.20 13.60L215.91 22L213.44 22L212.78 20.37L209.23 20.37L208.57 22ZM211.01 15.93L209.92 18.61L212.08 18.61L211.01 15.93ZM219.64 17.80L219.64 17.80Q219.64 16.54 220.23 15.54Q220.83 14.55 221.90 13.99Q222.97 13.43 224.31 13.43L224.31 13.43Q225.49 13.43 226.43 13.83Q227.37 14.22 227.99 14.97L227.99 14.97L226.47 16.33Q225.63 15.40 224.45 15.40L224.45 15.40Q224.44 15.40 224.44 15.40L224.44 15.40Q223.36 15.40 222.70 16.06Q222.03 16.71 222.03 17.80L222.03 17.80Q222.03 18.50 222.34 19.04Q222.64 19.59 223.18 19.89Q223.72 20.20 224.41 20.20L224.41 20.20Q225.10 20.20 225.70 19.93L225.70 19.93L225.70 17.62L227.79 17.62L227.79 21.10Q227.07 21.61 226.14 21.89Q225.20 22.17 224.27 22.17L224.27 22.17Q222.95 22.17 221.89 21.61Q220.83 21.05 220.23 20.05Q219.64 19.06 219.64 17.80ZM235.16 22L232.79 22L232.79 13.60L235.16 13.60L235.16 16.76L238.40 16.76L238.40 13.60L240.78 13.60L240.78 22L238.40 22L238.40 18.72L235.16 18.72L235.16 22ZM252.68 22L245.94 22L245.94 13.60L252.53 13.60L252.53 15.44L248.30 15.44L248.30 16.85L252.03 16.85L252.03 18.63L248.30 18.63L248.30 20.17L252.68 20.17L252.68 22ZM259.28 15.48L256.70 15.48L256.70 13.60L264.22 13.60L264.22 15.48L261.65 15.48L261.65 22L259.28 22L259.28 15.48ZM270.38 15.48L267.80 15.48L267.80 13.60L275.32 13.60L275.32 15.48L272.76 15.48L272.76 22L270.38 22L270.38 15.48ZM282.07 22L279.70 22L279.70 13.60L282.07 13.60L282.07 22ZM293.79 17.80L293.79 17.80Q293.79 16.54 294.39 15.54Q294.99 14.55 296.04 13.99Q297.09 13.43 298.41 13.43L298.41 13.43Q299.56 13.43 300.49 13.84Q301.41 14.25 302.03 15.02L302.03 15.02L300.51 16.39Q299.70 15.40 298.53 15.40L298.53 15.40Q297.85 15.40 297.31 15.70Q296.78 16 296.49 16.54Q296.19 17.09 296.19 17.80L296.19 17.80Q296.19 18.51 296.49 19.05Q296.78 19.60 297.31 19.90Q297.85 20.20 298.53 20.20L298.53 20.20Q299.70 20.20 300.51 19.22L300.51 19.22L302.03 20.58Q301.42 21.35 300.49 21.76Q299.56 22.17 298.41 22.17L298.41 22.17Q297.09 22.17 296.04 21.61Q294.99 21.05 294.39 20.05Q293.79 19.06 293.79 17.80ZM306.13 17.80L306.13 17.80Q306.13 16.55 306.74 15.55Q307.34 14.56 308.40 14.00Q309.47 13.43 310.80 13.43L310.80 13.43Q312.13 13.43 313.19 14.00Q314.25 14.56 314.86 15.55Q315.47 16.55 315.47 17.80L315.47 17.80Q315.47 19.05 314.86 20.04Q314.25 21.04 313.19 21.60Q312.13 22.17 310.80 22.17L310.80 22.17Q309.47 22.17 308.40 21.60Q307.34 21.04 306.74 20.04Q306.13 19.05 306.13 17.80ZM308.53 17.80L308.53 17.80Q308.53 18.51 308.83 19.05Q309.13 19.60 309.65 19.90Q310.16 20.20 310.80 20.20L310.80 20.20Q311.44 20.20 311.95 19.90Q312.47 19.60 312.77 19.05Q313.06 18.51 313.06 17.80L313.06 17.80Q313.06 17.09 312.77 16.54Q312.47 16 311.95 15.70Q311.44 15.40 310.80 15.40L310.80 15.40Q310.16 15.40 309.65 15.70Q309.13 16 308.83 16.54Q308.53 17.09 308.53 17.80ZM324.17 22L320.20 22L320.20 13.60L324.17 13.60Q325.55 13.60 326.62 14.12Q327.68 14.63 328.27 15.58Q328.86 16.53 328.86 17.80L328.86 17.80Q328.86 19.07 328.27 20.02Q327.68 20.97 326.62 21.48Q325.55 22 324.17 22L324.17 22ZM322.57 15.50L322.57 20.10L324.07 20.10Q325.15 20.10 325.81 19.49Q326.46 18.88 326.46 17.80L326.46 17.80Q326.46 16.72 325.81 16.11Q325.15 15.50 324.07 15.50L324.07 15.50L322.57 15.50ZM340.33 22L333.59 22L333.59 13.60L340.18 13.60L340.18 15.44L335.95 15.44L335.95 16.85L339.68 16.85L339.68 18.63L335.95 18.63L335.95 20.17L340.33 20.17L340.33 22Z" fill="#FFFFFF" x="117.24"/></svg>