<svg xmlns="http://www.w3.org/2000/svg" width="452.12" height="35" viewBox="0 0 452.12 35"><rect class="svg__rect" x="0" y="0" width="76.43" height="35" fill="#A7BFC1"/><rect class="svg__rect" x="74.43" y="0" width="377.69" height="35" fill="#5593C7"/><path class="svg__text" d="M13.95 18.19L13.95 18.19L13.95 17.39Q13.95 16.19 14.38 15.27Q14.80 14.35 15.60 13.85Q16.40 13.35 17.45 13.35L17.45 13.35Q18.86 13.35 19.73 14.12Q20.59 14.89 20.73 16.29L20.73 16.29L19.25 16.29Q19.14 15.37 18.71 14.96Q18.28 14.55 17.45 14.55L17.45 14.55Q16.48 14.55 15.97 15.26Q15.45 15.96 15.44 17.33L15.44 17.33L15.44 18.09Q15.44 19.47 15.93 20.20Q16.43 20.92 17.38 20.92L17.38 20.92Q18.25 20.92 18.69 20.53Q19.13 20.14 19.25 19.22L19.25 19.22L20.73 19.22Q20.60 20.59 19.72 21.35Q18.84 22.12 17.38 22.12L17.38 22.12Q16.36 22.12 15.59 21.63Q14.81 21.15 14.39 20.26Q13.97 19.37 13.95 18.19ZM27.08 18.86L24.21 13.47L25.86 13.47L27.82 17.51L29.79 13.47L31.43 13.47L28.57 18.86L28.57 22L27.08 22L27.08 18.86ZM37.80 22L35.34 22L35.34 13.47L37.86 13.47Q38.99 13.47 39.87 13.97Q40.74 14.48 41.22 15.40Q41.70 16.33 41.70 17.52L41.70 17.52L41.70 17.95Q41.70 19.16 41.22 20.08Q40.74 21.00 39.84 21.50Q38.95 22 37.80 22L37.80 22ZM36.82 14.66L36.82 20.82L37.79 20.82Q38.96 20.82 39.58 20.09Q40.20 19.36 40.22 17.99L40.22 17.99L40.22 17.52Q40.22 16.13 39.61 15.40Q39.01 14.66 37.86 14.66L37.86 14.66L36.82 14.66ZM51.75 22L46.17 22L46.17 13.47L51.71 13.47L51.71 14.66L47.65 14.66L47.65 17.02L51.15 17.02L51.15 18.19L47.65 18.19L47.65 20.82L51.75 20.82L51.75 22ZM57.42 22L55.94 22L55.94 13.47L58.94 13.47Q60.42 13.47 61.22 14.13Q62.02 14.79 62.02 16.05L62.02 16.05Q62.02 16.90 61.61 17.48Q61.20 18.06 60.46 18.37L60.46 18.37L62.38 21.92L62.38 22L60.79 22L59.08 18.71L57.42 18.71L57.42 22ZM57.42 14.66L57.42 17.52L58.95 17.52Q59.70 17.52 60.12 17.15Q60.54 16.77 60.54 16.11L60.54 16.11Q60.54 15.43 60.15 15.05Q59.76 14.68 58.99 14.66L58.99 14.66L57.42 14.66Z" fill="#FFFFFF"/><path class="svg__text" d="M90.04 22L87.61 22L91.32 13.60L93.66 13.60L97.38 22L94.91 22L94.25 20.37L90.70 20.37L90.04 22ZM92.47 15.93L91.39 18.61L93.55 18.61L92.47 15.93ZM110.88 22L108.50 22L108.50 13.60L112.35 13.60Q113.49 13.60 114.33 13.98Q115.17 14.35 115.62 15.06Q116.08 15.76 116.08 16.71L116.08 16.71Q116.08 17.66 115.62 18.35Q115.17 19.05 114.33 19.42Q113.49 19.80 112.35 19.80L112.35 19.80L110.88 19.80L110.88 22ZM110.88 15.47L110.88 17.93L112.20 17.93Q112.93 17.93 113.31 17.61Q113.68 17.29 113.68 16.71L113.68 16.71Q113.68 16.12 113.31 15.80Q112.93 15.47 112.20 15.47L112.20 15.47L110.88 15.47ZM123.21 22L120.83 22L120.83 13.60L124.68 13.60Q125.82 13.60 126.66 13.98Q127.49 14.35 127.95 15.06Q128.41 15.76 128.41 16.71L128.41 16.71Q128.41 17.62 127.98 18.30Q127.55 18.98 126.76 19.36L126.76 19.36L128.57 22L126.03 22L124.51 19.77L123.21 19.77L123.21 22ZM123.21 15.47L123.21 17.93L124.53 17.93Q125.26 17.93 125.63 17.61Q126.01 17.29 126.01 16.71L126.01 16.71Q126.01 16.12 125.63 15.79Q125.26 15.47 124.53 15.47L124.53 15.47L123.21 15.47ZM132.77 17.80L132.77 17.80Q132.77 16.55 133.37 15.55Q133.98 14.56 135.04 14.00Q136.10 13.43 137.43 13.43L137.43 13.43Q138.76 13.43 139.83 14.00Q140.89 14.56 141.50 15.55Q142.10 16.55 142.10 17.80L142.10 17.80Q142.10 19.05 141.50 20.04Q140.89 21.04 139.83 21.60Q138.77 22.17 137.43 22.17L137.43 22.17Q136.10 22.17 135.04 21.60Q133.98 21.04 133.37 20.04Q132.77 19.05 132.77 17.80ZM135.16 17.80L135.16 17.80Q135.16 18.51 135.47 19.05Q135.77 19.60 136.28 19.90Q136.80 20.20 137.43 20.20L137.43 20.20Q138.07 20.20 138.59 19.90Q139.10 19.60 139.40 19.05Q139.70 18.51 139.70 17.80L139.70 17.80Q139.70 17.09 139.40 16.54Q139.10 16 138.59 15.70Q138.07 15.40 137.43 15.40L137.43 15.40Q136.79 15.40 136.28 15.70Q135.77 16 135.47 16.54Q135.16 17.09 135.16 17.80ZM146.40 17.80L146.40 17.80Q146.40 16.54 147.00 15.54Q147.60 14.55 148.67 13.99Q149.74 13.43 151.08 13.43L151.08 13.43Q152.26 13.43 153.19 13.83Q154.13 14.22 154.75 14.97L154.75 14.97L153.24 16.33Q152.40 15.40 151.22 15.40L151.22 15.40Q151.21 15.40 151.20 15.40L151.20 15.40Q150.12 15.40 149.46 16.06Q148.80 16.71 148.80 17.80L148.80 17.80Q148.80 18.50 149.10 19.04Q149.40 19.59 149.94 19.89Q150.48 20.20 151.18 20.20L151.18 20.20Q151.86 20.20 152.46 19.93L152.46 19.93L152.46 17.62L154.56 17.62L154.56 21.10Q153.84 21.61 152.90 21.89Q151.97 22.17 151.03 22.17L151.03 22.17Q149.71 22.17 148.66 21.61Q147.60 21.05 147.00 20.05Q146.40 19.06 146.40 17.80ZM161.93 22L159.55 22L159.55 13.60L163.40 13.60Q164.54 13.60 165.38 13.98Q166.21 14.35 166.67 15.06Q167.13 15.76 167.13 16.71L167.13 16.71Q167.13 17.62 166.70 18.30Q166.27 18.98 165.48 19.36L165.48 19.36L167.29 22L164.75 22L163.23 19.77L161.93 19.77L161.93 22ZM161.93 15.47L161.93 17.93L163.25 17.93Q163.98 17.93 164.35 17.61Q164.73 17.29 164.73 16.71L164.73 16.71Q164.73 16.12 164.35 15.79Q163.98 15.47 163.25 15.47L163.25 15.47L161.93 15.47ZM173.33 22L170.91 22L174.62 13.60L176.96 13.60L180.67 22L178.21 22L177.55 20.37L173.99 20.37L173.33 22ZM175.77 15.93L174.69 18.61L176.85 18.61L175.77 15.93ZM187.03 22L184.83 22L184.83 13.60L186.79 13.60L189.74 18.45L192.62 13.60L194.57 13.60L194.60 22L192.42 22L192.39 17.55L190.23 21.17L189.18 21.17L187.03 17.67L187.03 22ZM201.96 22L199.76 22L199.76 13.60L201.72 13.60L204.67 18.45L207.55 13.60L209.50 13.60L209.53 22L207.35 22L207.32 17.55L205.16 21.17L204.11 21.17L201.96 17.67L201.96 22ZM221.43 22L214.69 22L214.69 13.60L221.28 13.60L221.28 15.44L217.04 15.44L217.04 16.85L220.78 16.85L220.78 18.63L217.04 18.63L217.04 20.17L221.43 20.17L221.43 22ZM228.62 22L226.24 22L226.24 13.60L230.08 13.60Q231.22 13.60 232.06 13.98Q232.90 14.35 233.36 15.06Q233.81 15.76 233.81 16.71L233.81 16.71Q233.81 17.62 233.39 18.30Q232.96 18.98 232.17 19.36L232.17 19.36L233.98 22L231.43 22L229.91 19.77L228.62 19.77L228.62 22ZM228.62 15.47L228.62 17.93L229.93 17.93Q230.67 17.93 231.04 17.61Q231.41 17.29 231.41 16.71L231.41 16.71Q231.41 16.12 231.04 15.79Q230.67 15.47 229.93 15.47L229.93 15.47L228.62 15.47ZM238.40 17.10L238.25 13.60L240.18 13.60L240.02 17.10L238.40 17.10ZM244.40 21.24L244.40 21.24L245.18 19.49Q245.74 19.86 246.49 20.09Q247.23 20.32 247.95 20.32L247.95 20.32Q249.32 20.32 249.32 19.64L249.32 19.64Q249.32 19.28 248.93 19.11Q248.54 18.93 247.68 18.74L247.68 18.74Q246.73 18.53 246.09 18.30Q245.46 18.06 245.00 17.55Q244.55 17.03 244.55 16.16L244.55 16.16Q244.55 15.39 244.97 14.77Q245.39 14.15 246.22 13.79Q247.06 13.43 248.26 13.43L248.26 13.43Q249.09 13.43 249.89 13.62Q250.70 13.80 251.32 14.17L251.32 14.17L250.58 15.93Q249.38 15.28 248.25 15.28L248.25 15.28Q247.54 15.28 247.22 15.49Q246.90 15.70 246.90 16.04L246.90 16.04Q246.90 16.37 247.28 16.54Q247.66 16.71 248.51 16.89L248.51 16.89Q249.48 17.10 250.11 17.33Q250.74 17.56 251.20 18.07Q251.66 18.58 251.66 19.46L251.66 19.46Q251.66 20.21 251.24 20.83Q250.82 21.44 249.98 21.80Q249.14 22.17 247.94 22.17L247.94 22.17Q246.92 22.17 245.96 21.92Q245.00 21.67 244.40 21.24ZM262.62 21.24L262.62 21.24L263.40 19.49Q263.97 19.86 264.71 20.09Q265.45 20.32 266.17 20.32L266.17 20.32Q267.54 20.32 267.55 19.64L267.55 19.64Q267.55 19.28 267.16 19.11Q266.77 18.93 265.90 18.74L265.90 18.74Q264.95 18.53 264.31 18.30Q263.68 18.06 263.22 17.55Q262.77 17.03 262.77 16.16L262.77 16.16Q262.77 15.39 263.19 14.77Q263.61 14.15 264.44 13.79Q265.28 13.43 266.49 13.43L266.49 13.43Q267.31 13.43 268.12 13.62Q268.92 13.80 269.54 14.17L269.54 14.17L268.81 15.93Q267.60 15.28 266.47 15.28L266.47 15.28Q265.76 15.28 265.44 15.49Q265.12 15.70 265.12 16.04L265.12 16.04Q265.12 16.37 265.50 16.54Q265.89 16.71 266.74 16.89L266.74 16.89Q267.70 17.10 268.33 17.33Q268.96 17.56 269.42 18.07Q269.88 18.58 269.88 19.46L269.88 19.46Q269.88 20.21 269.46 20.83Q269.05 21.44 268.20 21.80Q267.36 22.17 266.16 22.17L266.16 22.17Q265.14 22.17 264.18 21.92Q263.22 21.67 262.62 21.24ZM276.54 22L273.82 13.60L276.26 13.60L277.95 18.96L279.73 13.60L281.91 13.60L283.61 19.01L285.37 13.60L287.64 13.60L284.91 22L282.37 22L280.76 16.89L279.08 22L276.54 22ZM294.53 22L292.15 22L292.15 13.60L294.53 13.60L294.53 22ZM299.12 21.24L299.12 21.24L299.90 19.49Q300.46 19.86 301.20 20.09Q301.95 20.32 302.67 20.32L302.67 20.32Q304.03 20.32 304.04 19.64L304.04 19.64Q304.04 19.28 303.65 19.11Q303.26 18.93 302.39 18.74L302.39 18.74Q301.44 18.53 300.81 18.30Q300.17 18.06 299.72 17.55Q299.26 17.03 299.26 16.16L299.26 16.16Q299.26 15.39 299.68 14.77Q300.10 14.15 300.94 13.79Q301.77 13.43 302.98 13.43L302.98 13.43Q303.80 13.43 304.61 13.62Q305.41 13.80 306.03 14.17L306.03 14.17L305.30 15.93Q304.10 15.28 302.97 15.28L302.97 15.28Q302.26 15.28 301.93 15.49Q301.61 15.70 301.61 16.04L301.61 16.04Q301.61 16.37 302.00 16.54Q302.38 16.71 303.23 16.89L303.23 16.89Q304.19 17.10 304.82 17.33Q305.45 17.56 305.91 18.07Q306.38 18.58 306.38 19.46L306.38 19.46Q306.38 20.21 305.96 20.83Q305.54 21.44 304.70 21.80Q303.86 22.17 302.66 22.17L302.66 22.17Q301.64 22.17 300.67 21.92Q299.71 21.67 299.12 21.24ZM310.37 21.24L310.37 21.24L311.15 19.49Q311.71 19.86 312.45 20.09Q313.20 20.32 313.92 20.32L313.92 20.32Q315.28 20.32 315.29 19.64L315.29 19.64Q315.29 19.28 314.90 19.11Q314.51 18.93 313.64 18.74L313.64 18.74Q312.69 18.53 312.06 18.30Q311.42 18.06 310.97 17.55Q310.51 17.03 310.51 16.16L310.51 16.16Q310.51 15.39 310.93 14.77Q311.35 14.15 312.19 13.79Q313.02 13.43 314.23 13.43L314.23 13.43Q315.05 13.43 315.86 13.62Q316.66 13.80 317.28 14.17L317.28 14.17L316.55 15.93Q315.35 15.28 314.22 15.28L314.22 15.28Q313.51 15.28 313.18 15.49Q312.86 15.70 312.86 16.04L312.86 16.04Q312.86 16.37 313.25 16.54Q313.63 16.71 314.48 16.89L314.48 16.89Q315.44 17.10 316.07 17.33Q316.70 17.56 317.16 18.07Q317.63 18.58 317.63 19.46L317.63 19.46Q317.63 20.21 317.21 20.83Q316.79 21.44 315.95 21.80Q315.11 22.17 313.91 22.17L313.91 22.17Q312.89 22.17 311.92 21.92Q310.96 21.67 310.37 21.24ZM330.59 22L328.17 22L331.88 13.60L334.22 13.60L337.93 22L335.47 22L334.81 20.37L331.25 20.37L330.59 22ZM333.03 15.93L331.95 18.61L334.11 18.61L333.03 15.93ZM344.47 22L342.09 22L342.09 13.60L345.93 13.60Q347.07 13.60 347.91 13.98Q348.75 14.35 349.21 15.06Q349.66 15.76 349.66 16.71L349.66 16.71Q349.66 17.62 349.24 18.30Q348.81 18.98 348.02 19.36L348.02 19.36L349.83 22L347.29 22L345.76 19.77L344.47 19.77L344.47 22ZM344.47 15.47L344.47 17.93L345.79 17.93Q346.52 17.93 346.89 17.61Q347.26 17.29 347.26 16.71L347.26 16.71Q347.26 16.12 346.89 15.79Q346.52 15.47 345.79 15.47L345.79 15.47L344.47 15.47ZM356.65 22L354.45 22L354.45 13.60L356.41 13.60L359.36 18.45L362.24 13.60L364.20 13.60L364.22 22L362.04 22L362.02 17.55L359.85 21.17L358.80 21.17L356.65 17.67L356.65 22ZM371.51 18.95L368.30 13.60L370.81 13.60L372.80 16.94L374.80 13.60L377.10 13.60L373.88 18.99L373.88 22L371.51 22L371.51 18.95ZM390.51 22L388.16 22L388.16 13.60L390.51 13.60L390.51 17.09L393.76 13.60L396.38 13.60L392.95 17.32L396.56 22L393.80 22L391.40 18.95L390.51 19.90L390.51 22ZM403.00 22L400.66 22L400.66 13.60L402.62 13.60L406.33 18.07L406.33 13.60L408.66 13.60L408.66 22L406.71 22L403.00 17.52L403.00 22ZM416.20 22L413.82 22L413.82 13.60L416.20 13.60L416.20 22ZM423.75 22L421.37 22L421.37 13.60L427.96 13.60L427.96 15.44L423.75 15.44L423.75 17.28L427.46 17.28L427.46 19.12L423.75 19.12L423.75 22ZM439.30 22L432.56 22L432.56 13.60L439.15 13.60L439.15 15.44L434.91 15.44L434.91 16.85L438.65 16.85L438.65 18.63L434.91 18.63L434.91 20.17L439.30 20.17L439.30 22Z" fill="#FFFFFF" x="87.43"/></svg>