<svg xmlns="http://www.w3.org/2000/svg" width="308.83" height="35" viewBox="0 0 308.83 35"><rect class="svg__rect" x="0" y="0" width="44.94" height="35" fill="#31C4F3"/><rect class="svg__rect" x="42.94" y="0" width="265.89" height="35" fill="#389AD5"/><path class="svg__text" d="M17.33 22L14.22 22L14.22 13.47L17.14 13.47Q18.59 13.47 19.34 14.05Q20.10 14.63 20.10 15.78L20.10 15.78Q20.10 16.36 19.78 16.83Q19.47 17.30 18.86 17.56L18.86 17.56Q19.55 17.75 19.93 18.26Q20.31 18.78 20.31 19.51L20.31 19.51Q20.31 20.71 19.53 21.36Q18.76 22 17.33 22L17.33 22ZM15.70 18.15L15.70 20.82L17.35 20.82Q18.04 20.82 18.44 20.47Q18.83 20.13 18.83 19.51L18.83 19.51Q18.83 18.18 17.47 18.15L17.47 18.15L15.70 18.15ZM15.70 14.66L15.70 17.06L17.15 17.06Q17.84 17.06 18.23 16.75Q18.62 16.43 18.62 15.86L18.62 15.86Q18.62 15.23 18.26 14.95Q17.90 14.66 17.14 14.66L17.14 14.66L15.70 14.66ZM26.81 18.86L23.95 13.47L25.60 13.47L27.56 17.51L29.52 13.47L31.16 13.47L28.30 18.86L28.30 22L26.81 22L26.81 18.86Z" fill="#FFFFFF"/><path class="svg__text" d="M59.46 22L57.13 22L57.13 13.60L59.08 13.60L62.79 18.07L62.79 13.60L65.12 13.60L65.12 22L63.17 22L59.46 17.52L59.46 22ZM71.70 22L69.27 22L72.98 13.60L75.33 13.60L79.04 22L76.58 22L75.91 20.37L72.36 20.37L71.70 22ZM74.14 15.93L73.05 18.61L75.22 18.61L74.14 15.93ZM84.99 15.48L82.41 15.48L82.41 13.60L89.93 13.60L89.93 15.48L87.36 15.48L87.36 22L84.99 22L84.99 15.48ZM101.04 22L94.30 22L94.30 13.60L100.89 13.60L100.89 15.44L96.66 15.44L96.66 16.85L100.39 16.85L100.39 18.63L96.66 18.63L96.66 20.17L101.04 20.17L101.04 22ZM112.39 17.80L112.39 17.80Q112.39 16.54 112.99 15.54Q113.59 14.55 114.64 13.99Q115.69 13.43 117.01 13.43L117.01 13.43Q118.16 13.43 119.09 13.84Q120.01 14.25 120.63 15.02L120.63 15.02L119.11 16.39Q118.30 15.40 117.13 15.40L117.13 15.40Q116.45 15.40 115.91 15.70Q115.38 16 115.09 16.54Q114.79 17.09 114.79 17.80L114.79 17.80Q114.79 18.51 115.09 19.05Q115.38 19.60 115.91 19.90Q116.45 20.20 117.13 20.20L117.13 20.20Q118.30 20.20 119.11 19.22L119.11 19.22L120.63 20.58Q120.02 21.35 119.09 21.76Q118.16 22.17 117.01 22.17L117.01 22.17Q115.69 22.17 114.64 21.61Q113.59 21.05 112.99 20.05Q112.39 19.06 112.39 17.80ZM127.54 22L125.16 22L125.16 13.60L127.54 13.60L127.54 16.76L130.78 16.76L130.78 13.60L133.15 13.60L133.15 22L130.78 22L130.78 18.72L127.54 18.72L127.54 22ZM145.06 22L138.32 22L138.32 13.60L144.91 13.60L144.91 15.44L140.67 15.44L140.67 16.85L144.40 16.85L144.40 18.63L140.67 18.63L140.67 20.17L145.06 20.17L145.06 22ZM149.28 21.24L149.28 21.24L150.06 19.49Q150.62 19.86 151.36 20.09Q152.11 20.32 152.83 20.32L152.83 20.32Q154.19 20.32 154.20 19.64L154.20 19.64Q154.20 19.28 153.81 19.11Q153.42 18.93 152.55 18.74L152.55 18.74Q151.60 18.53 150.97 18.30Q150.33 18.06 149.88 17.55Q149.42 17.03 149.42 16.16L149.42 16.16Q149.42 15.39 149.84 14.77Q150.26 14.15 151.10 13.79Q151.93 13.43 153.14 13.43L153.14 13.43Q153.97 13.43 154.77 13.62Q155.58 13.80 156.19 14.17L156.19 14.17L155.46 15.93Q154.26 15.28 153.13 15.28L153.13 15.28Q152.42 15.28 152.10 15.49Q151.77 15.70 151.77 16.04L151.77 16.04Q151.77 16.37 152.16 16.54Q152.54 16.71 153.39 16.89L153.39 16.89Q154.35 17.10 154.98 17.33Q155.61 17.56 156.08 18.07Q156.54 18.58 156.54 19.46L156.54 19.46Q156.54 20.21 156.12 20.83Q155.70 21.44 154.86 21.80Q154.02 22.17 152.82 22.17L152.82 22.17Q151.80 22.17 150.84 21.92Q149.88 21.67 149.28 21.24ZM163.49 22L161.11 22L161.11 13.60L163.49 13.60L163.49 16.76L166.73 16.76L166.73 13.60L169.11 13.60L169.11 22L166.73 22L166.73 18.72L163.49 18.72L163.49 22ZM176.65 22L174.27 22L174.27 13.60L176.65 13.60L176.65 22ZM184.20 22L181.82 22L181.82 13.60L185.66 13.60Q186.81 13.60 187.65 13.98Q188.48 14.35 188.94 15.06Q189.40 15.76 189.40 16.71L189.40 16.71Q189.40 17.62 188.97 18.30Q188.54 18.98 187.75 19.36L187.75 19.36L189.56 22L187.02 22L185.50 19.77L184.20 19.77L184.20 22ZM184.20 15.47L184.20 17.93L185.52 17.93Q186.25 17.93 186.62 17.61Q187.00 17.29 187.00 16.71L187.00 16.71Q187.00 16.12 186.62 15.79Q186.25 15.47 185.52 15.47L185.52 15.47L184.20 15.47ZM200.93 22L194.18 22L194.18 13.60L200.78 13.60L200.78 15.44L196.54 15.44L196.54 16.85L200.27 16.85L200.27 18.63L196.54 18.63L196.54 20.17L200.93 20.17L200.93 22ZM212.59 18.71L212.59 18.71Q212.59 17.07 212.99 15.62Q213.39 14.18 214.14 13.09L214.14 13.09L216.32 13.09Q215.54 14.48 215.18 15.84Q214.82 17.20 214.82 18.71L214.82 18.71Q214.82 20.22 215.18 21.59Q215.54 22.95 216.32 24.33L216.32 24.33L214.14 24.33Q213.39 23.25 212.99 21.80Q212.59 20.35 212.59 18.71ZM220.19 17.80L220.19 17.80Q220.19 16.54 220.79 15.54Q221.38 14.55 222.44 13.99Q223.49 13.43 224.81 13.43L224.81 13.43Q225.96 13.43 226.88 13.84Q227.81 14.25 228.42 15.02L228.42 15.02L226.91 16.39Q226.09 15.40 224.93 15.40L224.93 15.40Q224.24 15.40 223.71 15.70Q223.18 16 222.88 16.54Q222.58 17.09 222.58 17.80L222.58 17.80Q222.58 18.51 222.88 19.05Q223.18 19.60 223.71 19.90Q224.24 20.20 224.93 20.20L224.93 20.20Q226.09 20.20 226.91 19.22L226.91 19.22L228.42 20.58Q227.81 21.35 226.89 21.76Q225.96 22.17 224.81 22.17L224.81 22.17Q223.49 22.17 222.44 21.61Q221.38 21.05 220.79 20.05Q220.19 19.06 220.19 17.80ZM235.08 18.95L231.88 13.60L234.39 13.60L236.38 16.94L238.37 13.60L240.67 13.60L237.46 18.99L237.46 22L235.08 22L235.08 18.95ZM247.14 22L244.76 22L244.76 13.60L248.60 13.60Q249.74 13.60 250.58 13.98Q251.42 14.35 251.88 15.06Q252.33 15.76 252.33 16.71L252.33 16.71Q252.33 17.66 251.88 18.35Q251.42 19.05 250.58 19.42Q249.74 19.80 248.60 19.80L248.60 19.80L247.14 19.80L247.14 22ZM247.14 15.47L247.14 17.93L248.45 17.93Q249.19 17.93 249.56 17.61Q249.93 17.29 249.93 16.71L249.93 16.71Q249.93 16.12 249.56 15.80Q249.19 15.47 248.45 15.47L248.45 15.47L247.14 15.47ZM259.46 22L257.08 22L257.08 13.60L259.46 13.60L259.46 16.76L262.70 16.76L262.70 13.60L265.08 13.60L265.08 22L262.70 22L262.70 18.72L259.46 18.72L259.46 22ZM276.98 22L270.24 22L270.24 13.60L276.83 13.60L276.83 15.44L272.59 15.44L272.59 16.85L276.33 16.85L276.33 18.63L272.59 18.63L272.59 20.17L276.98 20.17L276.98 22ZM284.17 22L281.79 22L281.79 13.60L285.63 13.60Q286.77 13.60 287.61 13.98Q288.45 14.35 288.91 15.06Q289.36 15.76 289.36 16.71L289.36 16.71Q289.36 17.62 288.94 18.30Q288.51 18.98 287.72 19.36L287.72 19.36L289.53 22L286.99 22L285.46 19.77L284.17 19.77L284.17 22ZM284.17 15.47L284.17 17.93L285.49 17.93Q286.22 17.93 286.59 17.61Q286.96 17.29 286.96 16.71L286.96 16.71Q286.96 16.12 286.59 15.79Q286.22 15.47 285.49 15.47L285.49 15.47L284.17 15.47ZM295.48 24.33L293.29 24.33Q294.07 22.94 294.43 21.58Q294.79 20.22 294.79 18.71L294.79 18.71Q294.79 17.20 294.43 15.84Q294.07 14.48 293.29 13.09L293.29 13.09L295.48 13.09Q296.22 14.17 296.62 15.62Q297.02 17.07 297.02 18.71L297.02 18.71Q297.02 20.36 296.62 21.80Q296.22 23.25 295.48 24.33L295.48 24.33Z" fill="#FFFFFF" x="55.94"/></svg>