<svg xmlns="http://www.w3.org/2000/svg" width="352.38" height="35" viewBox="0 0 352.38 35"><rect class="svg__rect" x="0" y="0" width="187.25" height="35" fill="#5593C7"/><rect class="svg__rect" x="185.25" y="0" width="167.13000000000002" height="35" fill="#389AD5"/><path class="svg__text" d="M15.70 22L14.22 22L14.22 13.47L15.70 13.47L19.51 19.54L19.51 13.47L20.98 13.47L20.98 22L19.50 22L15.70 15.95L15.70 22ZM31.30 22L25.73 22L25.73 13.47L31.26 13.47L31.26 14.66L27.21 14.66L27.21 17.02L30.71 17.02L30.71 18.19L27.21 18.19L27.21 20.82L31.30 20.82L31.30 22ZM36.88 22L34.91 13.47L36.38 13.47L37.71 19.88L39.34 13.47L40.58 13.47L42.19 19.89L43.50 13.47L44.97 13.47L43.00 22L41.59 22L39.96 15.77L38.31 22L36.88 22ZM55.80 22L54.26 22L57.48 13.47L58.81 13.47L62.04 22L60.49 22L59.80 20.01L56.49 20.01L55.80 22ZM58.14 15.28L56.91 18.82L59.38 18.82L58.14 15.28ZM67.48 22L66.00 22L66.00 13.47L67.48 13.47L71.29 19.54L71.29 13.47L72.76 13.47L72.76 22L71.28 22L67.48 15.95L67.48 22ZM79.96 22L77.50 22L77.50 13.47L80.02 13.47Q81.15 13.47 82.03 13.97Q82.91 14.48 83.39 15.40Q83.87 16.33 83.87 17.52L83.87 17.52L83.87 17.95Q83.87 19.16 83.38 20.08Q82.90 21.00 82.01 21.50Q81.11 22 79.96 22L79.96 22ZM78.99 14.66L78.99 20.82L79.95 20.82Q81.12 20.82 81.74 20.09Q82.37 19.36 82.38 17.99L82.38 17.99L82.38 17.52Q82.38 16.13 81.78 15.40Q81.17 14.66 80.02 14.66L80.02 14.66L78.99 14.66ZM95.87 22L94.40 22L94.40 13.47L95.87 13.47L95.87 22ZM102.16 22L100.68 22L100.68 13.47L102.61 13.47L105.07 20.01L107.52 13.47L109.44 13.47L109.44 22L107.96 22L107.96 19.19L108.11 15.43L105.59 22L104.53 22L102.01 15.43L102.16 19.19L102.16 22ZM115.66 22L114.18 22L114.18 13.47L117.44 13.47Q118.87 13.47 119.71 14.21Q120.55 14.96 120.55 16.18L120.55 16.18Q120.55 17.44 119.73 18.13Q118.91 18.83 117.42 18.83L117.42 18.83L115.66 18.83L115.66 22ZM115.66 14.66L115.66 17.64L117.44 17.64Q118.23 17.64 118.65 17.27Q119.06 16.90 119.06 16.19L119.06 16.19Q119.06 15.50 118.64 15.09Q118.22 14.68 117.48 14.66L117.48 14.66L115.66 14.66ZM126.32 22L124.84 22L124.84 13.47L127.84 13.47Q129.31 13.47 130.12 14.13Q130.92 14.79 130.92 16.05L130.92 16.05Q130.92 16.90 130.51 17.48Q130.09 18.06 129.35 18.37L129.35 18.37L131.27 21.92L131.27 22L129.68 22L127.97 18.71L126.32 18.71L126.32 22ZM126.32 14.66L126.32 17.52L127.84 17.52Q128.59 17.52 129.01 17.15Q129.44 16.77 129.44 16.11L129.44 16.11Q129.44 15.43 129.05 15.05Q128.66 14.68 127.88 14.66L127.88 14.66L126.32 14.66ZM135.04 18.00L135.04 18.00L135.04 17.52Q135.04 16.28 135.49 15.32Q135.93 14.37 136.73 13.86Q137.54 13.35 138.58 13.35Q139.63 13.35 140.43 13.85Q141.24 14.35 141.68 15.29Q142.12 16.23 142.12 17.48L142.12 17.48L142.12 17.96Q142.12 19.21 141.69 20.16Q141.25 21.10 140.45 21.61Q139.64 22.12 138.59 22.12L138.59 22.12Q137.56 22.12 136.75 21.61Q135.93 21.10 135.49 20.17Q135.05 19.23 135.04 18.00ZM136.53 17.46L136.53 17.96Q136.53 19.36 137.07 20.13Q137.62 20.90 138.59 20.90L138.59 20.90Q139.58 20.90 140.11 20.15Q140.64 19.40 140.64 17.96L140.64 17.96L140.64 17.51Q140.64 16.09 140.10 15.34Q139.57 14.58 138.58 14.58L138.58 14.58Q137.62 14.58 137.08 15.33Q136.54 16.09 136.53 17.46L136.53 17.46ZM148.88 22L145.82 13.47L147.45 13.47L149.59 20.14L151.76 13.47L153.39 13.47L150.32 22L148.88 22ZM162.92 22L157.34 22L157.34 13.47L162.88 13.47L162.88 14.66L158.82 14.66L158.82 17.02L162.32 17.02L162.32 18.19L158.82 18.19L158.82 20.82L162.92 20.82L162.92 22ZM169.57 22L167.11 22L167.11 13.47L169.63 13.47Q170.76 13.47 171.64 13.97Q172.51 14.48 172.99 15.40Q173.47 16.33 173.47 17.52L173.47 17.52L173.47 17.95Q173.47 19.16 172.99 20.08Q172.51 21.00 171.61 21.50Q170.72 22 169.57 22L169.57 22ZM168.59 14.66L168.59 20.82L169.56 20.82Q170.73 20.82 171.35 20.09Q171.97 19.36 171.99 17.99L171.99 17.99L171.99 17.52Q171.99 16.13 171.38 15.40Q170.78 14.66 169.63 14.66L169.63 14.66L168.59 14.66Z" fill="#FFFFFF"/><path class="svg__text" d="M198.85 21.24L198.85 21.24L199.63 19.49Q200.19 19.86 200.94 20.09Q201.68 20.32 202.40 20.32L202.40 20.32Q203.77 20.32 203.77 19.64L203.77 19.64Q203.77 19.28 203.38 19.11Q202.99 18.93 202.13 18.74L202.13 18.74Q201.18 18.53 200.54 18.30Q199.91 18.06 199.45 17.55Q199.00 17.03 199.00 16.16L199.00 16.16Q199.00 15.39 199.42 14.77Q199.84 14.15 200.67 13.79Q201.51 13.43 202.71 13.43L202.71 13.43Q203.54 13.43 204.35 13.62Q205.15 13.80 205.77 14.17L205.77 14.17L205.03 15.93Q203.83 15.28 202.70 15.28L202.70 15.28Q201.99 15.28 201.67 15.49Q201.35 15.70 201.35 16.04L201.35 16.04Q201.35 16.37 201.73 16.54Q202.12 16.71 202.97 16.89L202.97 16.89Q203.93 17.10 204.56 17.33Q205.19 17.56 205.65 18.07Q206.11 18.58 206.11 19.46L206.11 19.46Q206.11 20.21 205.69 20.83Q205.27 21.44 204.43 21.80Q203.59 22.17 202.39 22.17L202.39 22.17Q201.37 22.17 200.41 21.92Q199.45 21.67 198.85 21.24ZM217.07 22L210.69 22L210.69 13.60L213.07 13.60L213.07 20.11L217.07 20.11L217.07 22ZM223.87 22L221.49 22L221.49 13.60L223.87 13.60L223.87 22ZM228.62 17.80L228.62 17.80Q228.62 16.54 229.22 15.54Q229.81 14.55 230.88 13.99Q231.95 13.43 233.29 13.43L233.29 13.43Q234.47 13.43 235.41 13.83Q236.35 14.22 236.97 14.97L236.97 14.97L235.46 16.33Q234.61 15.40 233.43 15.40L233.43 15.40Q233.42 15.40 233.42 15.40L233.42 15.40Q232.34 15.40 231.68 16.06Q231.01 16.71 231.01 17.80L231.01 17.80Q231.01 18.50 231.32 19.04Q231.62 19.59 232.16 19.89Q232.70 20.20 233.39 20.20L233.39 20.20Q234.08 20.20 234.68 19.93L234.68 19.93L234.68 17.62L236.77 17.62L236.77 21.10Q236.05 21.61 235.12 21.89Q234.18 22.17 233.25 22.17L233.25 22.17Q231.93 22.17 230.87 21.61Q229.81 21.05 229.22 20.05Q228.62 19.06 228.62 17.80ZM244.14 22L241.77 22L241.77 13.60L244.14 13.60L244.14 16.76L247.39 16.76L247.39 13.60L249.76 13.60L249.76 22L247.39 22L247.39 18.72L244.14 18.72L244.14 22ZM256.71 15.48L254.13 15.48L254.13 13.60L261.65 13.60L261.65 15.48L259.09 15.48L259.09 22L256.71 22L256.71 15.48ZM272.41 22L266.02 22L266.02 13.60L268.40 13.60L268.40 20.11L272.41 20.11L272.41 22ZM278.96 18.95L275.75 13.60L278.26 13.60L280.25 16.94L282.24 13.60L284.55 13.60L281.33 18.99L281.33 22L278.96 22L278.96 18.95ZM295.53 18.26L295.53 18.26L295.53 13.60L297.91 13.60L297.91 18.19Q297.91 20.20 299.50 20.20L299.50 20.20Q301.09 20.20 301.09 18.19L301.09 18.19L301.09 13.60L303.43 13.60L303.43 18.26Q303.43 20.13 302.39 21.15Q301.35 22.17 299.48 22.17L299.48 22.17Q297.61 22.17 296.57 21.15Q295.53 20.13 295.53 18.26ZM307.93 21.24L307.93 21.24L308.71 19.49Q309.27 19.86 310.02 20.09Q310.76 20.32 311.48 20.32L311.48 20.32Q312.85 20.32 312.85 19.64L312.85 19.64Q312.85 19.28 312.46 19.11Q312.07 18.93 311.21 18.74L311.21 18.74Q310.26 18.53 309.62 18.30Q308.98 18.06 308.53 17.55Q308.08 17.03 308.08 16.16L308.08 16.16Q308.08 15.39 308.50 14.77Q308.91 14.15 309.75 13.79Q310.58 13.43 311.79 13.43L311.79 13.43Q312.62 13.43 313.42 13.62Q314.23 13.80 314.84 14.17L314.84 14.17L314.11 15.93Q312.91 15.28 311.78 15.28L311.78 15.28Q311.07 15.28 310.75 15.49Q310.43 15.70 310.43 16.04L310.43 16.04Q310.43 16.37 310.81 16.54Q311.19 16.71 312.04 16.89L312.04 16.89Q313.00 17.10 313.63 17.33Q314.26 17.56 314.73 18.07Q315.19 18.58 315.19 19.46L315.19 19.46Q315.19 20.21 314.77 20.83Q314.35 21.44 313.51 21.80Q312.67 22.17 311.47 22.17L311.47 22.17Q310.45 22.17 309.49 21.92Q308.53 21.67 307.93 21.24ZM326.51 22L319.77 22L319.77 13.60L326.36 13.60L326.36 15.44L322.12 15.44L322.12 16.85L325.85 16.85L325.85 18.63L322.12 18.63L322.12 20.17L326.51 20.17L326.51 22ZM335.29 22L331.31 22L331.31 13.60L335.29 13.60Q336.67 13.60 337.74 14.12Q338.80 14.63 339.39 15.58Q339.98 16.53 339.98 17.80L339.98 17.80Q339.98 19.07 339.39 20.02Q338.80 20.97 337.74 21.48Q336.67 22 335.29 22L335.29 22ZM333.69 15.50L333.69 20.10L335.19 20.10Q336.27 20.10 336.93 19.49Q337.58 18.88 337.58 17.80L337.58 17.80Q337.58 16.72 336.93 16.11Q336.27 15.50 335.19 15.50L335.19 15.50L333.69 15.50Z" fill="#FFFFFF" x="198.25"/></svg>