<svg xmlns="http://www.w3.org/2000/svg" width="437.63" height="35" viewBox="0 0 437.63 35"><rect class="svg__rect" x="0" y="0" width="80.38" height="35" fill="#A7BFC1"/><rect class="svg__rect" x="78.38" y="0" width="359.25" height="35" fill="#5593C7"/><path class="svg__text" d="M15.60 22L13.63 13.47L15.10 13.47L16.43 19.88L18.06 13.47L19.30 13.47L20.91 19.89L22.22 13.47L23.69 13.47L21.72 22L20.31 22L18.68 15.77L17.02 22L15.60 22ZM27.49 18.00L27.49 18.00L27.49 17.52Q27.49 16.28 27.94 15.32Q28.38 14.37 29.18 13.86Q29.99 13.35 31.03 13.35Q32.08 13.35 32.88 13.85Q33.69 14.35 34.13 15.29Q34.57 16.23 34.57 17.48L34.57 17.48L34.57 17.96Q34.57 19.21 34.14 20.16Q33.71 21.10 32.90 21.61Q32.09 22.12 31.05 22.12L31.05 22.12Q30.01 22.12 29.20 21.61Q28.39 21.10 27.94 20.17Q27.50 19.23 27.49 18.00ZM28.98 17.46L28.98 17.96Q28.98 19.36 29.52 20.13Q30.07 20.90 31.05 20.90L31.05 20.90Q32.03 20.90 32.56 20.15Q33.09 19.40 33.09 17.96L33.09 17.96L33.09 17.51Q33.09 16.09 32.55 15.34Q32.02 14.58 31.03 14.58L31.03 14.58Q30.07 14.58 29.53 15.33Q28.99 16.09 28.98 17.46L28.98 17.46ZM40.52 22L39.04 22L39.04 13.47L42.04 13.47Q43.51 13.47 44.32 14.13Q45.12 14.79 45.12 16.05L45.12 16.05Q45.12 16.90 44.71 17.48Q44.29 18.06 43.56 18.37L43.56 18.37L45.47 21.92L45.47 22L43.88 22L42.17 18.71L40.52 18.71L40.52 22ZM40.52 14.66L40.52 17.52L42.04 17.52Q42.79 17.52 43.22 17.15Q43.64 16.77 43.64 16.11L43.64 16.11Q43.64 15.43 43.25 15.05Q42.86 14.68 42.08 14.66L42.08 14.66L40.52 14.66ZM51.00 22L49.51 22L49.51 13.47L51.00 13.47L51.00 17.47L51.82 16.46L54.31 13.47L56.11 13.47L52.94 17.25L56.29 22L54.53 22L51.96 18.31L51.00 19.34L51.00 22ZM59.63 19.42L59.63 19.42L61.12 19.42Q61.12 20.15 61.60 20.55Q62.08 20.95 62.97 20.95L62.97 20.95Q63.75 20.95 64.14 20.63Q64.53 20.32 64.53 19.80L64.53 19.80Q64.53 19.24 64.13 18.94Q63.73 18.63 62.70 18.32Q61.67 18.01 61.06 17.63L61.06 17.63Q59.90 16.90 59.90 15.72L59.90 15.72Q59.90 14.69 60.74 14.02Q61.58 13.35 62.92 13.35L62.92 13.35Q63.81 13.35 64.51 13.68Q65.21 14.01 65.60 14.61Q66.00 15.22 66.00 15.96L66.00 15.96L64.53 15.96Q64.53 15.29 64.11 14.91Q63.69 14.54 62.91 14.54L62.91 14.54Q62.18 14.54 61.78 14.85Q61.38 15.16 61.38 15.71L61.38 15.71Q61.38 16.18 61.81 16.50Q62.25 16.81 63.24 17.10Q64.24 17.40 64.84 17.78Q65.45 18.16 65.73 18.65Q66.01 19.13 66.01 19.79L66.01 19.79Q66.01 20.86 65.19 21.49Q64.37 22.12 62.97 22.12L62.97 22.12Q62.05 22.12 61.27 21.77Q60.49 21.43 60.06 20.83Q59.63 20.22 59.63 19.42Z" fill="#FFFFFF"/><path class="svg__text" d="M92.14 17.80L92.14 17.80Q92.14 16.55 92.74 15.55Q93.35 14.56 94.41 14.00Q95.47 13.43 96.80 13.43L96.80 13.43Q98.13 13.43 99.20 14.00Q100.26 14.56 100.87 15.55Q101.47 16.55 101.47 17.80L101.47 17.80Q101.47 19.05 100.87 20.04Q100.26 21.04 99.20 21.60Q98.14 22.17 96.80 22.17L96.80 22.17Q95.47 22.17 94.41 21.60Q93.35 21.04 92.74 20.04Q92.14 19.05 92.14 17.80ZM94.54 17.80L94.54 17.80Q94.54 18.51 94.84 19.05Q95.14 19.60 95.66 19.90Q96.17 20.20 96.80 20.20L96.80 20.20Q97.44 20.20 97.96 19.90Q98.47 19.60 98.77 19.05Q99.07 18.51 99.07 17.80L99.07 17.80Q99.07 17.09 98.77 16.54Q98.47 16 97.96 15.70Q97.44 15.40 96.80 15.40L96.80 15.40Q96.17 15.40 95.65 15.70Q95.14 16 94.84 16.54Q94.54 17.09 94.54 17.80ZM108.53 22L106.20 22L106.20 13.60L108.16 13.60L111.87 18.07L111.87 13.60L114.19 13.60L114.19 22L112.24 22L108.53 17.52L108.53 22ZM128.53 22L126.33 22L126.33 13.60L128.29 13.60L131.24 18.45L134.12 13.60L136.07 13.60L136.10 22L133.92 22L133.89 17.55L131.73 21.17L130.68 21.17L128.53 17.67L128.53 22ZM143.39 18.95L140.18 13.60L142.69 13.60L144.68 16.94L146.67 13.60L148.98 13.60L145.76 18.99L145.76 22L143.39 22L143.39 18.95ZM162.23 22L160.03 22L160.03 13.60L161.99 13.60L164.94 18.45L167.83 13.60L169.78 13.60L169.80 22L167.62 22L167.60 17.55L165.44 21.17L164.38 21.17L162.23 17.67L162.23 22ZM176.38 22L173.95 22L177.66 13.60L180.01 13.60L183.72 22L181.26 22L180.59 20.37L177.04 20.37L176.38 22ZM178.82 15.93L177.73 18.61L179.90 18.61L178.82 15.93ZM187.45 17.80L187.45 17.80Q187.45 16.54 188.05 15.54Q188.64 14.55 189.70 13.99Q190.75 13.43 192.07 13.43L192.07 13.43Q193.22 13.43 194.14 13.84Q195.07 14.25 195.68 15.02L195.68 15.02L194.17 16.39Q193.35 15.40 192.19 15.40L192.19 15.40Q191.50 15.40 190.97 15.70Q190.44 16 190.14 16.54Q189.85 17.09 189.85 17.80L189.85 17.80Q189.85 18.51 190.14 19.05Q190.44 19.60 190.97 19.90Q191.50 20.20 192.19 20.20L192.19 20.20Q193.35 20.20 194.17 19.22L194.17 19.22L195.68 20.58Q195.07 21.35 194.15 21.76Q193.22 22.17 192.07 22.17L192.07 22.17Q190.75 22.17 189.70 21.61Q188.64 21.05 188.05 20.05Q187.45 19.06 187.45 17.80ZM202.60 22L200.22 22L200.22 13.60L202.60 13.60L202.60 16.76L205.84 16.76L205.84 13.60L208.21 13.60L208.21 22L205.84 22L205.84 18.72L202.60 18.72L202.60 22ZM215.75 22L213.37 22L213.37 13.60L215.75 13.60L215.75 22ZM223.26 22L220.92 22L220.92 13.60L222.88 13.60L226.59 18.07L226.59 13.60L228.92 13.60L228.92 22L226.96 22L223.26 17.52L223.26 22ZM240.82 22L234.08 22L234.08 13.60L240.67 13.60L240.67 15.44L236.43 15.44L236.43 16.85L240.17 16.85L240.17 18.63L236.43 18.63L236.43 20.17L240.82 20.17L240.82 22ZM254.80 22L252.60 22L252.60 13.60L254.56 13.60L257.51 18.45L260.39 13.60L262.34 13.60L262.37 22L260.19 22L260.16 17.55L258.00 21.17L256.95 21.17L254.80 17.67L254.80 22ZM267.10 17.80L267.10 17.80Q267.10 16.55 267.70 15.55Q268.31 14.56 269.37 14.00Q270.44 13.43 271.77 13.43L271.77 13.43Q273.10 13.43 274.16 14.00Q275.22 14.56 275.83 15.55Q276.44 16.55 276.44 17.80L276.44 17.80Q276.44 19.05 275.83 20.04Q275.22 21.04 274.16 21.60Q273.10 22.17 271.77 22.17L271.77 22.17Q270.44 22.17 269.37 21.60Q268.31 21.04 267.70 20.04Q267.10 19.05 267.10 17.80ZM269.50 17.80L269.50 17.80Q269.50 18.51 269.80 19.05Q270.10 19.60 270.62 19.90Q271.13 20.20 271.77 20.20L271.77 20.20Q272.40 20.20 272.92 19.90Q273.44 19.60 273.73 19.05Q274.03 18.51 274.03 17.80L274.03 17.80Q274.03 17.09 273.73 16.54Q273.44 16 272.92 15.70Q272.40 15.40 271.77 15.40L271.77 15.40Q271.13 15.40 270.61 15.70Q270.10 16 269.80 16.54Q269.50 17.09 269.50 17.80ZM280.58 21.24L280.58 21.24L281.36 19.49Q281.92 19.86 282.66 20.09Q283.41 20.32 284.13 20.32L284.13 20.32Q285.49 20.32 285.50 19.64L285.50 19.64Q285.50 19.28 285.11 19.11Q284.72 18.93 283.85 18.74L283.85 18.74Q282.90 18.53 282.27 18.30Q281.63 18.06 281.18 17.55Q280.72 17.03 280.72 16.16L280.72 16.16Q280.72 15.39 281.14 14.77Q281.56 14.15 282.40 13.79Q283.23 13.43 284.44 13.43L284.44 13.43Q285.27 13.43 286.07 13.62Q286.88 13.80 287.49 14.17L287.49 14.17L286.76 15.93Q285.56 15.28 284.43 15.28L284.43 15.28Q283.72 15.28 283.40 15.49Q283.07 15.70 283.07 16.04L283.07 16.04Q283.07 16.37 283.46 16.54Q283.84 16.71 284.69 16.89L284.69 16.89Q285.65 17.10 286.28 17.33Q286.91 17.56 287.37 18.07Q287.84 18.58 287.84 19.46L287.84 19.46Q287.84 20.21 287.42 20.83Q287.00 21.44 286.16 21.80Q285.32 22.17 284.12 22.17L284.12 22.17Q283.10 22.17 282.14 21.92Q281.18 21.67 280.58 21.24ZM294.21 15.48L291.62 15.48L291.62 13.60L299.15 13.60L299.15 15.48L296.58 15.48L296.58 22L294.21 22L294.21 15.48ZM310.06 17.80L310.06 17.80Q310.06 16.55 310.67 15.55Q311.27 14.56 312.33 14.00Q313.40 13.43 314.73 13.43L314.73 13.43Q316.06 13.43 317.12 14.00Q318.18 14.56 318.79 15.55Q319.40 16.55 319.40 17.80L319.40 17.80Q319.40 19.05 318.79 20.04Q318.18 21.04 317.12 21.60Q316.06 22.17 314.73 22.17L314.73 22.17Q313.40 22.17 312.33 21.60Q311.27 21.04 310.67 20.04Q310.06 19.05 310.06 17.80ZM312.46 17.80L312.46 17.80Q312.46 18.51 312.76 19.05Q313.06 19.60 313.58 19.90Q314.09 20.20 314.73 20.20L314.73 20.20Q315.36 20.20 315.88 19.90Q316.40 19.60 316.69 19.05Q316.99 18.51 316.99 17.80L316.99 17.80Q316.99 17.09 316.69 16.54Q316.40 16 315.88 15.70Q315.36 15.40 314.73 15.40L314.73 15.40Q314.09 15.40 313.57 15.70Q313.06 16 312.76 16.54Q312.46 17.09 312.46 17.80ZM326.50 22L324.12 22L324.12 13.60L330.72 13.60L330.72 15.44L326.50 15.44L326.50 17.28L330.21 17.28L330.21 19.12L326.50 19.12L326.50 22ZM344.08 15.48L341.49 15.48L341.49 13.60L349.02 13.60L349.02 15.48L346.45 15.48L346.45 22L344.08 22L344.08 15.48ZM355.77 22L353.39 22L353.39 13.60L355.77 13.60L355.77 16.76L359.01 16.76L359.01 13.60L361.38 13.60L361.38 22L359.01 22L359.01 18.72L355.77 18.72L355.77 22ZM373.28 22L366.54 22L366.54 13.60L373.13 13.60L373.13 15.44L368.90 15.44L368.90 16.85L372.63 16.85L372.63 18.63L368.90 18.63L368.90 20.17L373.28 20.17L373.28 22ZM386.86 15.48L384.27 15.48L384.27 13.60L391.79 13.60L391.79 15.48L389.23 15.48L389.23 22L386.86 22L386.86 15.48ZM398.54 22L396.17 22L396.17 13.60L398.54 13.60L398.54 22ZM405.92 22L403.72 22L403.72 13.60L405.68 13.60L408.63 18.45L411.51 13.60L413.46 13.60L413.49 22L411.31 22L411.28 17.55L409.12 21.17L408.07 21.17L405.92 17.67L405.92 22ZM425.39 22L418.65 22L418.65 13.60L425.24 13.60L425.24 15.44L421.00 15.44L421.00 16.85L424.74 16.85L424.74 18.63L421.00 18.63L421.00 20.17L425.39 20.17L425.39 22Z" fill="#FFFFFF" x="91.38"/></svg>